<svg width="356" height="63" viewBox="0 0 356 63" fill="none" xmlns="http://www.w3.org/2000/svg">
<rect width="356" height="63" fill="#E5E5E5"/>
<path d="M0.65625 50.25V3.375L3.96875 1.8125H15.8125C18.9583 1.8125 21.8542 2.36458 24.5 3.46875C29.2292 5.42708 31.5938 8.3125 31.5938 12.125V22.75C31.5938 26.5625 29.2292 29.4479 24.5 31.4062C21.8542 32.5104 18.9583 33.0625 15.8125 33.0625H6.90625V47.4375L0.96875 50.25H0.65625ZM6.90625 27.4375H15.8125C17.8958 27.4375 19.8125 27.0938 21.5625 26.4062C24.0833 25.4062 25.3438 24.1875 25.3438 22.75V12.125C25.3438 10.6667 24.0833 9.44792 21.5625 8.46875C19.8125 7.78125 17.8958 7.4375 15.8125 7.4375H6.90625V27.4375ZM39.4062 50.25V21.6562C39.4062 18.8646 41.3542 16.7188 45.25 15.2188C47.3542 14.4062 49.7292 14 52.375 14H56.5938V14.3125L54.0938 19.625H52.375C50.5 19.625 48.9062 19.8854 47.5938 20.4062C46.3021 20.9271 45.6562 21.7083 45.6562 22.75V47.4375L39.7188 50.25H39.4062ZM68.1562 40.875C68.1562 41.9167 68.8021 42.6979 70.0938 43.2188C71.4062 43.7396 73 44 74.875 44C76.75 44 78.3333 43.7396 79.625 43.2188C80.9375 42.6979 81.5938 41.9167 81.5938 40.875V22.75C81.5938 21.7083 80.9375 20.9271 79.625 20.4062C78.3333 19.8854 76.75 19.625 74.875 19.625C73 19.625 71.4062 19.8854 70.0938 20.4062C68.8021 20.9271 68.1562 21.7083 68.1562 22.75V40.875ZM61.9062 41.9688V21.6562C61.9062 18.9062 63.8542 16.7604 67.75 15.2188C69.8542 14.4062 72.2292 14 74.875 14C77.5208 14 79.8958 14.4062 82 15.2188C85.8958 16.7604 87.8438 18.9062 87.8438 21.6562V41.9688C87.8438 44.7188 85.8958 46.8646 82 48.4062C79.8958 49.2188 77.5208 49.625 74.875 49.625C72.2292 49.625 69.8542 49.2188 67.75 48.4062C63.8542 46.8646 61.9062 44.7188 61.9062 41.9688ZM98.7812 16.1875L104.719 13.375H105.031V54.7812C105.031 57.5729 103.083 59.7188 99.1875 61.2188C97.0833 62.0312 94.7083 62.4375 92.0625 62.4375V62.125L94.6562 56.625C95.4479 56.5 96.1771 56.3021 96.8438 56.0312C98.1354 55.4896 98.7812 54.7083 98.7812 53.6875V16.1875ZM99.25 7.71875C98.5208 6.96875 98.1562 6.07292 98.1562 5.03125C98.1562 3.96875 98.5208 3.0625 99.25 2.3125C99.9792 1.5625 100.865 1.1875 101.906 1.1875C102.948 1.1875 103.833 1.5625 104.562 2.3125C105.292 3.0625 105.656 3.96875 105.656 5.03125C105.656 6.07292 105.292 6.96875 104.562 7.71875C103.833 8.46875 102.948 8.84375 101.906 8.84375C100.865 8.84375 99.9792 8.46875 99.25 7.71875ZM141.906 35.1562V41.9688C141.906 44.7188 139.958 46.8646 136.062 48.4062C133.958 49.2188 131.583 49.625 128.938 49.625C126.292 49.625 123.917 49.2188 121.812 48.4062C117.917 46.8646 115.969 44.7188 115.969 41.9688V21.6562C115.969 18.9062 117.917 16.7604 121.812 15.2188C123.917 14.4062 126.292 14 128.938 14C131.583 14 133.958 14.4062 136.062 15.2188C139.958 16.7604 141.906 18.9062 141.906 21.6562V25.6562L122.219 40.875C122.219 41.9167 122.865 42.6979 124.156 43.2188C125.469 43.7396 127.062 44 128.938 44C130.812 44 132.396 43.7396 133.688 43.2188C135 42.6979 135.656 41.9167 135.656 40.875V37.9688L141.594 35.1562H141.906ZM122.219 34.2812L135.656 23.4688V22.75C135.656 21.7083 135 20.9271 133.688 20.4062C132.396 19.8854 130.812 19.625 128.938 19.625C127.062 19.625 125.469 19.8854 124.156 20.4062C122.865 20.9271 122.219 21.7083 122.219 22.75V34.2812ZM177.219 35.1562V41.9688C177.219 44.7188 175.271 46.8646 171.375 48.4062C169.271 49.2188 166.896 49.625 164.25 49.625C161.604 49.625 159.229 49.2188 157.125 48.4062C153.229 46.8646 151.281 44.7188 151.281 41.9688V21.6562C151.281 18.9062 153.229 16.7604 157.125 15.2188C159.229 14.4062 161.604 14 164.25 14C166.896 14 169.271 14.4062 171.375 15.2188C175.271 16.7604 177.219 18.9062 177.219 21.6562V25.6562L171.281 28.4688H170.969V22.75C170.969 21.7083 170.312 20.9271 169 20.4062C167.708 19.8854 166.125 19.625 164.25 19.625C162.375 19.625 160.781 19.8854 159.469 20.4062C158.177 20.9271 157.531 21.7083 157.531 22.75V40.875C157.531 41.9167 158.177 42.6979 159.469 43.2188C160.781 43.7396 162.375 44 164.25 44C166.125 44 167.708 43.7396 169 43.2188C170.312 42.6979 170.969 41.9167 170.969 40.875V37.9688L176.906 35.1562H177.219ZM190.719 50.25V20.3125H182.688V20L185.219 14.625H190.719V3.375L196.656 0.5625H196.969V14.625H205V14.9375L202.469 20.3125H196.969V47.4375L191.031 50.25H190.719ZM268.594 31.8125V39.3125C268.594 43.125 266.229 46.0104 261.5 47.9688C258.854 49.0729 255.958 49.625 252.812 49.625C249.667 49.625 246.771 49.0729 244.125 47.9688C239.396 46.0104 237.031 43.125 237.031 39.3125V11.5C237.031 7.6875 239.396 4.80208 244.125 2.84375C246.771 1.73958 249.667 1.1875 252.812 1.1875C255.958 1.1875 258.854 1.73958 261.5 2.84375C266.229 4.80208 268.594 7.6875 268.594 11.5V16.1875L262.656 19H262.344V11.5C262.344 10.0833 261.083 8.86458 258.562 7.84375C256.812 7.15625 254.896 6.8125 252.812 6.8125C250.729 6.8125 248.812 7.15625 247.062 7.84375C244.542 8.84375 243.281 10.0625 243.281 11.5V39.3125C243.281 40.7292 244.542 41.9479 247.062 42.9688C248.812 43.6562 250.729 44 252.812 44C254.896 44 256.812 43.6562 258.562 42.9688C261.083 41.9688 262.344 40.75 262.344 39.3125V34.625L268.281 31.8125H268.594ZM281.562 7.71875C280.833 6.96875 280.469 6.07292 280.469 5.03125C280.469 3.96875 280.833 3.0625 281.562 2.3125C282.292 1.5625 283.177 1.1875 284.219 1.1875C285.26 1.1875 286.146 1.5625 286.875 2.3125C287.604 3.0625 287.969 3.96875 287.969 5.03125C287.969 6.07292 287.604 6.96875 286.875 7.71875C286.146 8.46875 285.26 8.84375 284.219 8.84375C283.177 8.84375 282.292 8.46875 281.562 7.71875ZM281.094 50.25V16.1875L287.031 13.375H287.344V47.4375L281.406 50.25H281.094ZM307.219 50.25L295.156 15.9375L300.562 13.375H300.875L309.719 39.4375L318.375 13.375H318.688L324.094 15.9375L312.938 47.6875L307.531 50.25H307.219ZM330.812 7.71875C330.083 6.96875 329.719 6.07292 329.719 5.03125C329.719 3.96875 330.083 3.0625 330.812 2.3125C331.542 1.5625 332.427 1.1875 333.469 1.1875C334.51 1.1875 335.396 1.5625 336.125 2.3125C336.854 3.0625 337.219 3.96875 337.219 5.03125C337.219 6.07292 336.854 6.96875 336.125 7.71875C335.396 8.46875 334.51 8.84375 333.469 8.84375C332.427 8.84375 331.542 8.46875 330.812 7.71875ZM330.344 50.25V16.1875L336.281 13.375H336.594V47.4375L330.656 50.25H330.344ZM349.094 50.25V3.375L355.031 0.5625H355.344V47.4375L349.406 50.25H349.094Z" fill="black"/>
</svg>
